<svg width="50" height="50" viewBox="0 0 50 50" fill="none" xmlns="http://www.w3.org/2000/svg">
<path d="M25 14.5833V41.6667M25 14.5833H17.6339C16.5486 14.5833 15.5077 14.1444 14.7403 13.3629C13.9728 12.5815 13.5417 11.5217 13.5417 10.4167C13.5417 9.3116 13.9728 8.25179 14.7403 7.4704C15.5077 6.68898 16.5486 6.25 17.6339 6.25C23.3631 6.25 25 14.5833 25 14.5833ZM25 14.5833H32.366C33.4515 14.5833 34.4923 14.1444 35.2598 13.3629C36.0271 12.5815 36.4583 11.5217 36.4583 10.4167C36.4583 9.3116 36.0271 8.25179 35.2598 7.4704C34.4923 6.68898 33.4515 6.25 32.366 6.25C26.6369 6.25 25 14.5833 25 14.5833ZM10.4167 25H39.5833V37.0833C39.5833 39.4169 39.5833 40.5838 39.1292 41.475C38.7298 42.259 38.0923 42.8965 37.3083 43.2958C36.4171 43.75 35.2502 43.75 32.9167 43.75H17.0833C14.7498 43.75 13.583 43.75 12.6917 43.2958C11.9077 42.8965 11.2703 42.259 10.8708 41.475C10.4167 40.5838 10.4167 39.4169 10.4167 37.0833V25ZM9.58333 25H40.4167C41.5835 25 42.1669 25 42.6125 24.7729C43.0046 24.5731 43.3231 24.2546 43.5229 23.8625C43.75 23.4169 43.75 22.8335 43.75 21.6667V17.9167C43.75 16.7499 43.75 16.1665 43.5229 15.7209C43.3231 15.3289 43.0046 15.0101 42.6125 14.8104C42.1669 14.5833 41.5835 14.5833 40.4167 14.5833H9.58333C8.41656 14.5833 7.83317 14.5833 7.38752 14.8104C6.99552 15.0101 6.67681 15.3289 6.47706 15.7209C6.25 16.1665 6.25 16.7499 6.25 17.9167V21.6667C6.25 22.8335 6.25 23.4169 6.47706 23.8625C6.67681 24.2546 6.99552 24.5731 7.38752 24.7729C7.83317 25 8.41656 25 9.58333 25Z" stroke="white" stroke-width="2.5" stroke-linecap="round" stroke-linejoin="round"/>
</svg>
